<svg xmlns="http://www.w3.org/2000/svg" width="16" height="17" viewBox="0 0 16 17" fill="none">
  <path d="M11.858 10.7865C11.4769 10.7864 11.0996 10.8628 10.7485 11.0111C10.3974 11.1594 10.0796 11.3766 9.814 11.65L6.52161 9.53385C6.7806 8.86974 6.7806 8.13255 6.52161 7.46843L9.814 5.35231C10.3085 5.85889 10.9736 6.1638 11.6801 6.20792C12.3867 6.25204 13.0845 6.03222 13.6382 5.59109C14.1919 5.14996 14.5621 4.51894 14.677 3.82038C14.7919 3.12181 14.6433 2.40546 14.2601 1.81022C13.8768 1.21498 13.2862 0.783252 12.6027 0.598737C11.9192 0.414222 11.1916 0.490068 10.5608 0.811568C9.93011 1.13307 9.44121 1.67732 9.18895 2.3388C8.93669 3.00029 8.93903 3.73188 9.19552 4.39173L5.90313 6.50786C5.50666 6.10083 4.99782 5.82127 4.44165 5.70493C3.88548 5.58859 3.30725 5.64075 2.78088 5.85474C2.25451 6.06872 1.80391 6.43482 1.48668 6.90623C1.16945 7.37764 1 7.93294 1 8.50114C1 9.06935 1.16945 9.62465 1.48668 10.0961C1.80391 10.5675 2.25451 10.9336 2.78088 11.1476C3.30725 11.3615 3.88548 11.4137 4.44165 11.2974C4.99782 11.181 5.50666 10.9015 5.90313 10.4944L9.19552 12.6106C8.97496 13.1794 8.94232 13.804 9.10238 14.3927C9.26245 14.9815 9.60681 15.5035 10.085 15.8824C10.5633 16.2613 11.1502 16.4771 11.76 16.4983C12.3698 16.5194 12.9703 16.3448 13.4736 16C13.977 15.6552 14.3567 15.1582 14.5572 14.582C14.7576 14.0057 14.7684 13.3804 14.5878 12.7977C14.4072 12.2149 14.0447 11.7052 13.5535 11.3433C13.0623 10.9814 12.4681 10.7863 11.858 10.7865ZM11.858 1.64498C12.197 1.64498 12.5284 1.74551 12.8103 1.93385C13.0921 2.12219 13.3118 2.38989 13.4416 2.70309C13.5713 3.01629 13.6052 3.36092 13.5391 3.69341C13.473 4.02591 13.3097 4.33132 13.07 4.57103C12.8303 4.81074 12.5249 4.97399 12.1924 5.04013C11.8599 5.10626 11.5153 5.07232 11.2021 4.94259C10.8889 4.81286 10.6212 4.59316 10.4328 4.31129C10.2445 4.02942 10.144 3.69803 10.144 3.35902C10.144 2.90443 10.3245 2.46846 10.646 2.14701C10.9674 1.82557 11.4034 1.64498 11.858 1.64498ZM3.85914 10.2152C3.52013 10.2152 3.18874 10.1147 2.90687 9.92632C2.625 9.73798 2.4053 9.47028 2.27557 9.15708C2.14584 8.84388 2.1119 8.49924 2.17803 8.16675C2.24417 7.83426 2.40742 7.52885 2.64713 7.28913C2.88684 7.04942 3.19225 6.88617 3.52474 6.82004C3.85724 6.7539 4.20187 6.78784 4.51507 6.91758C4.82827 7.04731 5.09597 7.267 5.28431 7.54887C5.47265 7.83075 5.57318 8.16214 5.57318 8.50114C5.57318 8.95574 5.39259 9.39171 5.07115 9.71315C4.7497 10.0346 4.31373 10.2152 3.85914 10.2152ZM11.858 15.3573C11.519 15.3573 11.1876 15.2568 10.9057 15.0684C10.6239 14.8801 10.4042 14.6124 10.2744 14.2992C10.1447 13.986 10.1108 13.6414 10.1769 13.3089C10.243 12.9764 10.4063 12.671 10.646 12.4313C10.8857 12.1915 11.1911 12.0283 11.5236 11.9622C11.8561 11.896 12.2007 11.93 12.5139 12.0597C12.8271 12.1894 13.0948 12.4091 13.2832 12.691C13.4715 12.9729 13.572 13.3043 13.572 13.6433C13.572 14.0979 13.3914 14.5338 13.07 14.8553C12.7486 15.1767 12.3126 15.3573 11.858 15.3573Z" fill="currentColor"/>
</svg>
